<svg width="56" height="56" viewBox="0 0 56 56" fill="none" xmlns="http://www.w3.org/2000/svg">
<g clip-path="url(#clip0_931_80)">
<path d="M23.55 10C33.4 10 39.95 13.15 39.95 20.25C39.95 27.3 33.4 30.45 23.55 30.45H21.1V41.7C21.1 43.45 21.45 44.2 22.2 44.65C22.2 44.75 22.2 45 22.2 45H16C16 45 16 44.75 16 44.65C16.8 44.2 17.15 43.45 17.15 41.7V13.35C17.15 11.55 16.8 10.85 16 10.4C16 10.3 16 10 16 10H23.55ZM23.55 30.05C32.55 30.05 36 26.1 36 20.25C36 14.35 32.55 10.4 23.55 10.4H21.1V30.05H23.55Z" fill="white"/>
</g>
<defs>
<clipPath id="clip0_931_80">
<rect width="56" height="56" fill="white"/>
</clipPath>
</defs>
</svg>
